<svg width="64" height="65" viewBox="0 0 64 65" fill="none" xmlns="http://www.w3.org/2000/svg">
<path d="M37.3334 32.5C37.3334 35.4455 34.9456 37.8333 32.0001 37.8333C29.0546 37.8333 26.6667 35.4455 26.6667 32.5C26.6667 29.5544 29.0546 27.1666 32.0001 27.1666C34.9456 27.1666 37.3334 29.5544 37.3334 32.5Z" fill="black"/>
<path d="M53.3334 32.5C53.3334 35.4455 50.9456 37.8333 48.0001 37.8333C45.0546 37.8333 42.6667 35.4455 42.6667 32.5C42.6667 29.5544 45.0546 27.1666 48.0001 27.1666C50.9456 27.1666 53.3334 29.5544 53.3334 32.5Z" fill="black"/>
<path d="M21.3334 32.5C21.3334 35.4455 18.9456 37.8333 16.0001 37.8333C13.0546 37.8333 10.6667 35.4455 10.6667 32.5C10.6667 29.5544 13.0546 27.1666 16.0001 27.1666C18.9456 27.1666 21.3334 29.5544 21.3334 32.5Z" fill="black"/>
<path d="M37.3334 16.5C37.3334 19.4455 34.9456 21.8333 32.0001 21.8333C29.0546 21.8333 26.6667 19.4455 26.6667 16.5C26.6667 13.5544 29.0546 11.1666 32.0001 11.1666C34.9456 11.1666 37.3334 13.5544 37.3334 16.5Z" fill="black"/>
<path d="M53.3334 16.5C53.3334 19.4455 50.9456 21.8333 48.0001 21.8333C45.0546 21.8333 42.6667 19.4455 42.6667 16.5C42.6667 13.5544 45.0546 11.1666 48.0001 11.1666C50.9456 11.1666 53.3334 13.5544 53.3334 16.5Z" fill="black"/>
<path d="M21.3334 16.5C21.3334 19.4455 18.9456 21.8333 16.0001 21.8333C13.0546 21.8333 10.6667 19.4455 10.6667 16.5C10.6667 13.5544 13.0546 11.1666 16.0001 11.1666C18.9456 11.1666 21.3334 13.5544 21.3334 16.5Z" fill="black"/>
<path d="M37.3334 48.5C37.3334 51.4455 34.9456 53.8333 32.0001 53.8333C29.0546 53.8333 26.6667 51.4455 26.6667 48.5C26.6667 45.5544 29.0546 43.1666 32.0001 43.1666C34.9456 43.1666 37.3334 45.5544 37.3334 48.5Z" fill="black"/>
<path d="M53.3334 48.5C53.3334 51.4455 50.9456 53.8333 48.0001 53.8333C45.0546 53.8333 42.6667 51.4455 42.6667 48.5C42.6667 45.5544 45.0546 43.1666 48.0001 43.1666C50.9456 43.1666 53.3334 45.5544 53.3334 48.5Z" fill="black"/>
<path d="M21.3334 48.5C21.3334 51.4455 18.9456 53.8333 16.0001 53.8333C13.0546 53.8333 10.6667 51.4455 10.6667 48.5C10.6667 45.5544 13.0546 43.1666 16.0001 43.1666C18.9456 43.1666 21.3334 45.5544 21.3334 48.5Z" fill="black"/>
</svg>
