<svg xmlns="http://www.w3.org/2000/svg" xmlns:xlink="http://www.w3.org/1999/xlink" viewBox="0,0,256,256" width="50px" height="50px"><g transform="translate(28.16,28.16) scale(0.78,0.78)"><g fill="#ffffff" fill-rule="nonzero" stroke="none" stroke-width="1" stroke-linecap="butt" stroke-linejoin="miter" stroke-miterlimit="10" stroke-dasharray="" stroke-dashoffset="0" font-family="none" font-weight="none" font-size="none" text-anchor="none" style="mix-blend-mode: normal"><path d="M-36.10256,292.10256v-328.20513h328.20513v328.20513z" id="bgRectangle"></path></g><g fill="#000000" fill-rule="nonzero" stroke="none" stroke-width="1" stroke-linecap="butt" stroke-linejoin="miter" stroke-miterlimit="10" stroke-dasharray="" stroke-dashoffset="0" font-family="none" font-weight="none" font-size="none" text-anchor="none" style="mix-blend-mode: normal"><path d="M128,292.10256c-90.63134,0 -164.10256,-73.47122 -164.10256,-164.10256v0c0,-90.63134 73.47122,-164.10256 164.10256,-164.10256v0c90.63134,0 164.10256,73.47122 164.10256,164.10256v0c0,90.63134 -73.47122,164.10256 -164.10256,164.10256z" id="shape"></path></g><g fill="#ffffff" fill-rule="nonzero" stroke="none" stroke-width="1" stroke-linecap="butt" stroke-linejoin="miter" stroke-miterlimit="10" stroke-dasharray="" stroke-dashoffset="0" font-family="none" font-weight="none" font-size="none" text-anchor="none" style="mix-blend-mode: normal"><g transform="scale(5.12,5.12)"><path d="M16,3c-7.17,0 -13,5.83 -13,13v18c0,7.17 5.83,13 13,13h18c7.17,0 13,-5.83 13,-13v-18c0,-7.17 -5.83,-13 -13,-13zM37,11c1.1,0 2,0.9 2,2c0,1.1 -0.9,2 -2,2c-1.1,0 -2,-0.9 -2,-2c0,-1.1 0.9,-2 2,-2zM25,14c6.07,0 11,4.93 11,11c0,6.07 -4.93,11 -11,11c-6.07,0 -11,-4.93 -11,-11c0,-6.07 4.93,-11 11,-11zM25,16c-4.96,0 -9,4.04 -9,9c0,4.96 4.04,9 9,9c4.96,0 9,-4.04 9,-9c0,-4.96 -4.04,-9 -9,-9z"></path></g></g></g></svg>