<svg xmlns="http://www.w3.org/2000/svg" xmlns:xlink="http://www.w3.org/1999/xlink" viewBox="0,0,256,256" width="48px" height="48px"><g transform=""><g fill="#000000" fill-rule="nonzero" stroke="none" stroke-width="1" stroke-linecap="butt" stroke-linejoin="miter" stroke-miterlimit="10" stroke-dasharray="" stroke-dashoffset="0" font-family="none" font-weight="none" font-size="none" text-anchor="none" style="mix-blend-mode: normal"><path d="M69.12,256c-38.17392,0 -69.12,-30.94608 -69.12,-69.12v-117.76c0,-38.17392 30.94608,-69.12 69.12,-69.12h117.76c38.17392,0 69.12,30.94608 69.12,69.12v117.76c0,38.17392 -30.94608,69.12 -69.12,69.12z" id="shape"></path></g><g fill="#ffffff" fill-rule="nonzero" stroke="none" stroke-width="1" stroke-linecap="butt" stroke-linejoin="miter" stroke-miterlimit="10" stroke-dasharray="" stroke-dashoffset="0" font-family="none" font-weight="none" font-size="none" text-anchor="none" style="mix-blend-mode: normal"><g transform="scale(5.33333,5.33333)"><path d="M11.5,6c-3.01977,0 -5.5,2.48023 -5.5,5.5v25c0,3.01977 2.48023,5.5 5.5,5.5h25c3.01977,0 5.5,-2.48023 5.5,-5.5v-25c0,-3.01977 -2.48023,-5.5 -5.5,-5.5zM27.5,11c0.83,0 1.5,0.67 1.5,1.5c0,3.03 2.47,5.5 5.5,5.5c0.83,0 1.5,0.67 1.5,1.5c0,0.83 -0.67,1.5 -1.5,1.5c-2.1,0 -4.02,-0.75953 -5.5,-2.01953v10.01953c0,4.41 -3.59,8 -8,8c-4.41,0 -8,-3.59 -8,-8c0,-4.41 3.59,-8 8,-8c0.21,0 0.41914,0.00953 0.61914,0.01953c0.83,0.07 1.45086,0.79133 1.38086,1.61133c-0.06,0.83 -0.77938,1.44867 -1.60937,1.38867c-0.13,-0.01 -0.26063,-0.01953 -0.39062,-0.01953c-2.76,0 -5,2.24 -5,5c0,2.76 2.24,5 5,5c2.76,0 5,-2.24 5,-5v-16.5c0,-0.83 0.67,-1.5 1.5,-1.5z"></path></g></g></g></svg>